PathFileType	4	(X/Y/Z)	Patient4_TMGait_0pt2_03_right_17.trc.trc
DataRate	CameraRate	NumFrames	NumMarkers	Units	OrigDataRate	OrigDataStartFrame	OrigNumFrames
45.901639344262	45.901639344262	6	33	mm	45.901639344262	106	       141
Frame#	Time	Sacral			L.Shoulder			Chest			R.Shoulder			Neck			R.ASIS			L.ASIS			R.Thigh.Superior			R.Thigh.Lateral			R.Thigh.Inferior			R.Patella			L.Thigh.Superior			L.Thigh.Lateral			L.Thigh.Inferior			L.Patella			L.Shank.Superior			L.Shank.Lateral			L.Shank.Inferior			R.Shank.Superior			R.Shank.Lateral			R.Shank.Inferior			R.Heel			R.Midfoot.Superior			R.Midfoot.Lateral			R.Toe			L.Heel			L.Midfoot.Lateral			L.Midfoot.Superior			L.Toe			L.Elbow			L.Wrist			R.Elbow			R.Wrist			
		X1	Y1	Z1	X2	Y2	Z2	X3	Y3	Z3	X4	Y4	Z4	X5	Y5	Z5	X6	Y6	Z6	X7	Y7	Z7	X8	Y8	Z8	X9	Y9	Z9	X10	Y10	Z10	X11	Y11	Z11	X12	Y12	Z12	X13	Y13	Z13	X14	Y14	Z14	X15	Y15	Z15	X16	Y16	Z16	X17	Y17	Z17	X18	Y18	Z18	X19	Y19	Z19	X20	Y20	Z20	X21	Y21	Z21	X22	Y22	Z22	X23	Y23	Z23	X24	Y24	Z24	X25	Y25	Z25	X26	Y26	Z26	X27	Y27	Z27	X28	Y28	Z28	X29	Y29	Z29	X30	Y30	Z30	X31	Y31	Z31	X32	Y32	Z32	X33	Y33	Z33	

106	38.727500000000	774.725854595294	988.463034768693	401.685516913614	990.983638798893	1423.926931530519	259.197395626208	1069.381601925494	1340.885995172823	425.873273423028	968.736334937676	1404.266423784119	594.029432834493	946.749516230664	1475.885029946506	419.030923404167	996.719510145085	924.110772299169	535.606218346572	1003.159500225213	946.312917724429	262.400990646759	1074.527269903235	745.360933600327	508.069736674365	1026.448626004780	629.339029328738	582.863963752016	1113.713762427260	581.156407254696	505.225701037276	1123.569654462501	468.442182039911	533.446237815774	1066.520860458964	743.514929594623	302.822400791626	991.942371223181	601.967892134263	244.686714619183	1089.050426275865	549.652359220124	320.835120956152	1096.854202127632	474.565299904956	331.568351571806	1055.954989187034	398.281825069988	325.277813798861	952.540074630408	296.612849301889	272.988809062048	978.674839245758	181.841755928253	348.082808510921	1040.912683117012	401.056542536280	548.940604865881	918.666360431443	378.232547000814	617.839561442589	890.319097073309	267.783381890421	577.290605462743	682.542268598712	232.407857618104	562.019344356065	842.331141720552	148.770183374135	602.272451060213	733.646590063376	166.119917138368	635.991432223585	890.658036871938	31.197006225036	630.433967719785	829.914198358416	39.226533027347	389.698207342483	902.464295117900	35.803356095752	307.898630823021	987.457996924568	95.015953229693	335.079736756209	1114.670854754667	40.476447079611	302.113595127655	1077.524518292079	1104.161990249500	95.068356691722	1282.702187324086	941.248876765738	117.524056358847	873.286042816930	1055.381867485471	671.953667387955	881.326932864700	793.575749934356	673.095177953028	
107	38.749285714286	775.000853907909	989.277657337823	397.977431485359	994.595449436892	1425.111844219132	258.832839258602	1068.892467930095	1342.480200899769	427.375265939054	964.040268806866	1406.213895339902	592.997500447166	946.521248582827	1476.909792954571	417.756396988042	995.067070083498	925.735560753226	535.703148811512	1005.868377347799	947.294807001526	262.570708060008	1076.488613265616	750.375538256769	506.863042864245	1031.642358680931	632.975994544583	581.364056602769	1119.788507068773	586.916834559792	503.364847678346	1132.221540926734	474.024810835507	531.750721126347	1066.812282916368	742.647198598004	302.819151319460	990.817508580880	602.039954812571	244.207907900560	1086.375675989093	548.782020765163	321.164657129735	1093.324925633602	474.100776899502	332.206296939194	1052.280810073983	398.021722870167	325.515545088718	949.038273600729	296.450027959961	272.685926284512	974.520237393209	181.727965343988	348.131483518258	1050.370451397768	405.179419115496	547.041583127139	927.577042494128	380.677331548001	614.172228044081	901.985192519717	269.548781617934	574.112278843490	695.550117139078	229.729126867730	556.032687410067	856.295883772384	150.640200803451	599.168736325421	747.118317640766	165.749185300681	631.490276758873	906.771982252366	33.154631219321	629.587072318422	825.461669958244	39.221514774854	389.538769840583	898.073409281048	35.757715593583	307.760409232963	983.069914902625	94.976336145055	335.009173687617	1110.280815617196	40.471298207120	302.084584105157	1088.172204366190	1108.949858816769	93.023320434921	1304.369271725472	961.866404632390	116.429173588205	849.327027527805	1063.777960831873	667.147191503126	840.958025656324	801.760238019268	666.246211328504	
108	38.771071428571	775.440956865294	991.320891225222	394.680752520650	998.306904030984	1427.264479590230	258.817459950895	1068.449960650284	1345.132807160177	429.106715982049	959.632483990257	1409.546408537443	592.054044325930	946.387585907657	1478.933032005116	416.684828316642	993.230590613414	928.316041408364	536.290088056080	1008.537694243497	949.165994454920	263.373470993477	1077.289784329990	755.788983984944	506.497733949505	1034.914889252529	637.247181413032	580.720646499793	1123.807829232135	592.979801106572	502.608895398297	1138.655785125753	480.362559907225	531.135493530312	1066.144284948108	742.166143110757	303.301124306170	988.206331454478	602.909491516137	243.873519559927	1081.920948669719	548.272989867503	321.549986499810	1087.758826550977	474.133391135696	332.781481643051	1046.907277659159	398.439690496837	325.637599079990	944.240072935484	296.575708465401	272.351253847882	969.731416112963	181.991032333472	348.094648157841	1058.388907224919	409.727262871827	546.062886708210	935.604128093670	381.927247000514	611.298265338424	914.325754230146	270.054030218034	571.579298086047	710.164853738940	222.483991739189	550.541248207478	872.678801047328	151.150600276091	596.575033389176	763.144805731772	161.935686358270	627.472873902020	927.251163973299	35.650115017820	629.113125506717	820.956847814624	39.207114154322	389.391669564422	893.633944280985	35.711716346141	307.628789053685	978.620263630227	94.980690132465	334.879563857832	1105.839995623126	40.518636822851	302.059253597467	1098.007812816041	1114.583254529866	91.668135383552	1324.177995774098	984.656140810441	116.321208653588	826.948882597481	1074.470439787531	662.496519976404	804.353578065917	813.246324440187	659.684670361645	
109	38.792857142857	776.008498768461	994.396477962052	391.767236726106	1002.119530645922	1430.190033329772	259.128013940821	1068.075429484219	1348.608556089512	431.017733165795	955.600415179753	1414.002757144145	591.198337967100	946.385923321694	1481.760523993377	415.814983944485	991.206478837134	931.674356557604	537.318891810506	1011.117110801094	951.736832772105	264.750876370578	1076.977366706128	761.310259576809	506.988221411243	1036.242168550872	641.856143571773	580.935305756167	1125.777622299483	599.000649775805	502.977498733096	1142.855233795345	487.139298067702	531.601296202064	1064.574991922233	742.010347471255	304.239607441120	984.286176129809	604.469302252691	243.645244367285	1075.906513453394	548.088642450672	321.959172912669	1080.418258911834	474.593291439237	333.249059802010	1040.067164812831	399.443999417278	325.618442954404	938.310759636261	296.949593397287	271.974879919775	964.390215620152	182.575675554477	347.971633790389	1064.972001967257	414.452043331627	546.052701111175	942.938345920587	381.830229819119	609.477375614959	927.376166731497	269.284190423070	569.943282146526	726.588518186789	211.085467670999	546.089764993378	891.407595941595	150.319609636373	594.789397797417	781.802354544590	154.939873144169	624.369779320764	951.727983082058	38.580603104721	629.166414965273	816.411063637244	39.183442687093	389.262260038060	889.152798590686	35.664769858090	307.507178496046	974.117672708048	95.021622263347	334.701766565000	1101.357341541540	40.608033305505	302.038601802200	1107.142960665581	1120.852670139938	90.982166069023	1341.999638877889	1009.204761800279	117.227803173893	806.520589677314	1086.879059787744	658.046997123127	771.838457328155	827.043345620214	653.569751917854	
110	38.814642857143	776.654899490263	998.197137661656	389.227489964044	1006.007529297026	1433.600513122056	259.739912963070	1067.777017883059	1352.583546093181	433.064870764825	951.999119578840	1419.212893280136	590.441867564884	946.538479202883	1485.111823194335	415.151021297458	989.018342250252	935.538086184690	538.736726467738	1013.552790265168	954.735665024022	266.625439632124	1075.650291071049	766.591768529878	508.309144373107	1035.693905948579	646.456585367708	581.971531689550	1125.777630975482	604.599630628203	504.416957351765	1144.880497472202	493.985590164094	533.065773213904	1062.239362760843	742.078391623557	305.589295273645	979.350552511241	606.539401222104	243.499484095088	1068.696191150688	548.154434837902	322.370908376778	1071.727512888372	475.365205427946	333.587056404018	1032.129140481550	400.883108569813	325.458876602890	931.518863487585	297.505445576856	271.564080291346	958.631690112481	183.393678842131	347.775062949934	1070.161855467049	419.082317630053	546.991503860121	949.786951766780	380.322345104448	608.902623439335	941.099688165601	267.321722558144	569.394784842065	744.916696802881	196.233549053714	543.161502567725	912.247941780295	148.286126343429	594.049094519114	803.011626830029	145.264054127043	622.551463510373	979.552982483100	41.857975901788	629.851254696756	811.841189705343	39.151070651801	389.155240892042	884.641639848257	35.616796119660	307.398803449816	969.576635391876	95.088033764779	334.493274787570	1096.846261030755	40.725953808391	302.023341836242	1115.708623065364	1127.485815182271	90.921424064020	1357.772609618354	1034.966207072022	119.116966978975	788.306306739228	1100.286175420838	653.860263350886	743.581094079753	842.091823361467	648.020337786594	
111	38.836428571429	777.327041679347	1002.347337374019	387.071093572666	1009.917611635422	1437.155630064182	260.631100717905	1067.553225345168	1356.689171552960	435.216624009218	948.853174004727	1424.745350020076	589.812100794631	946.851519483808	1488.659355069084	414.704648531285	986.716535798148	939.574871731793	540.486426435640	1015.792892008489	957.848758540675	268.904936300215	1073.450951441443	771.269131461961	510.398163896746	1033.422588990715	650.693314886399	583.760905157949	1123.955574035997	609.405114781959	506.813776954410	1144.860347684682	500.518560564162	535.381579179622	1059.337589082218	742.247992050659	307.287722445424	973.776615731476	608.892993711605	243.429075735449	1060.758726904402	548.369890245678	322.776255733636	1062.227018486512	476.304044370636	333.798633098510	1023.555257102660	402.565443042479	325.185955532217	924.204817725587	298.161294144075	271.142019822240	952.628555752138	184.335614962735	347.528700417128	1074.027572606400	423.352335371973	548.797874649364	956.329074038071	377.437002117843	609.670075158316	955.369908904415	264.332686197784	570.033230783429	765.084556913269	178.829417173773	542.097234123429	934.803128444550	145.285943540444	594.494023819507	826.504338331624	133.586459449205	622.265053161780	1009.852024435682	45.416515035622	631.207402867879	807.266825316223	39.111420168816	389.073816664084	880.115069361157	35.568389862798	307.306304068444	965.015197705532	95.166562213600	334.275555874500	1092.322571973984	40.856772232651	302.013772421813	1123.833076239162	1134.176308253851	91.428438895494	1371.497930992883	1061.299824466172	121.904841630732	772.462646844629	1113.906449307043	650.013405377778	719.608832261453	857.342299007333	643.122214763935	
